<svg fill="#000000" xmlns="http://www.w3.org/2000/svg" viewBox="0 0 512 512" xml:space="preserve" aria-hidden="true">
<g>
	<g>
		<path d="M512,66.2L445.801,0l-45.459,54.841l-15.198-15.198L363.63,61.158l16.25,16.25L308.288,149
			c-20.094-9.806-42.844-13.871-65.258-11.452c-26.929,2.9-52.325,15.064-71.511,34.248l-6.475,6.475l2.691,8.753
			c5.131,16.691,0.662,34.715-11.661,47.037c-8.866,8.866-20.654,13.749-33.193,13.749s-24.326-4.882-33.193-13.749l-10.757-10.757
			l-29.939,29.938C-5.206,307.441-8.608,393.499,38.786,451.7L0,490.486L21.514,512L60.3,473.214
			c27.151,22.109,60.364,33.165,93.578,33.165c37.984,0,75.966-14.457,104.883-43.374l29.938-29.939l-10.757-10.756
			c-8.866-8.866-13.749-20.654-13.749-33.193c0-12.539,4.882-24.326,13.749-33.194c12.322-12.321,30.346-16.791,47.037-11.661
			l8.753,2.69l6.475-6.475c19.184-19.185,31.347-44.581,34.248-71.511c2.414-22.418-1.648-45.164-11.453-65.257l71.593-71.592
			l16.25,16.25l21.514-21.514l-15.198-15.198L512,66.2z M344.202,265.711c-1.893,17.589-8.746,33.737-19.94,47.16
			c-24.614-4.254-49.886,3.59-67.834,21.539c-14.612,14.612-22.66,34.04-22.66,54.707c0,15.499,4.525,30.301,12.953,42.898
			l-9.475,9.476c-42.325,42.323-109.087,45.678-155.287,10.064l19.496-19.496l-21.514-21.514l-19.496,19.496
			c-35.613-46.201-32.26-112.963,10.065-155.288l9.475-9.475c12.597,8.429,27.399,12.954,42.899,12.954
			c20.665,0,40.094-8.049,54.707-22.661c17.949-17.948,25.79-43.227,21.539-67.834c13.423-11.195,29.571-18.047,47.16-19.941
			c13.141-1.415,26.433,0.141,38.786,4.416l-23.498,23.499l-35.396,35.396l16.598,16.598L114.971,375.514l-21.338-21.338
			l-21.514,21.516l64.189,64.189l21.514-21.514l-21.338-21.338l127.809-127.809l16.598,16.598l58.894-58.894
			C344.063,239.279,345.617,252.57,344.202,265.711z M280.891,242.792l-11.682-11.682L401.394,98.923l11.683,11.684L280.891,242.792
			z M435.552,90.05l-13.601-13.601l25.955-31.313l18.958,18.958L435.552,90.05z"/>
	</g>
</g>
<g>
	<g>
		<path d="M115.496,300.861c-2.41,2.411-5.616,3.738-9.023,3.738c-3.408,0-6.614-1.328-9.023-3.738l-21.515,21.514
			c8.157,8.157,19.003,12.65,30.538,12.65c11.535,0,22.382-4.494,30.538-12.65c4.977-4.974,13.073-4.973,18.048,0l21.514-21.514
			C159.733,284.022,132.336,284.022,115.496,300.861z"/>
	</g>
</g>
<g>
	<g>
		<path d="M223.79,365.965c0-11.535-4.493-22.381-12.649-30.538l-21.516,21.514c2.411,2.411,3.738,5.616,3.738,9.024
			c0,3.409-1.328,6.614-3.738,9.023c-8.156,8.157-12.649,19.003-12.649,30.538c0,11.535,4.493,22.381,12.65,30.537l21.514-21.514
			c-2.41-2.411-3.738-5.615-3.738-9.023s1.328-6.614,3.738-9.024C219.297,388.347,223.79,377.501,223.79,365.965z"/>
	</g>
</g>
</svg>
