<svg viewBox="0 0 64 64" xmlns="http://www.w3.org/2000/svg">
       <path fill="#000" class="st0" d="M48,12.5v45.1h-4.9V8.9h1.6l1.5,0.7C47.5,10.2,48,11.1,48,12.5z M37.4,42.9c0.6,1.4,0.9,3.1,0.9,4.9  c0,6.2-3.7,10.3-9.7,11.2v-9.6h-4.9V59c-6.1-0.9-9.7-5-9.7-11.2c0-1.8,0.3-3.5,0.9-4.9c2.4-0.4,3.9-2.1,3.9-4.8c0-2.3-1.1-4-3-4.6  c-0.1-0.6-0.2-1.2-0.2-1.9c0-4.4,3.1-7.3,8.1-8v-9.9h-2.4V7.2H31v6.5h-2.4v9.9c5.1,0.7,8.1,3.6,8.1,8c0,0.7-0.1,1.3-0.2,1.9  c-1.9,0.6-3,2.3-3,4.6C33.4,40.8,34.9,42.5,37.4,42.9L37.4,42.9z M30.2,41.3h-8.1v3.2h8.1V41.3z"  />
     </svg>